<?xml version="1.0" encoding="UTF-8"?> <svg xmlns="http://www.w3.org/2000/svg" width="759" height="770" viewBox="0 0 759 770" fill="none"><path d="M0.709009 0.000269618C0.709009 0.000269618 0.708919 337.71 0.709082 478.087C0.709227 603.24 53.6223 697.662 168.651 747.742C283.68 797.822 387.592 747.742 387.592 747.742C387.592 747.742 346.868 737.004 297.483 684.197C246.572 629.757 203.16 571.596 203.16 450.009C203.16 321.562 203.16 202.044 203.16 202.044C203.16 202.044 238.876 202.044 387.206 202.044C483.83 202.044 528.847 299.163 504.283 377.636C479.718 456.109 438.738 481.424 398.655 500.25C356.895 519.863 275.832 525.775 275.832 525.775C275.832 525.775 385.908 555.515 479.718 534.582C649.053 496.795 806.427 343.304 744.538 151.382C671.322 -0.00495798 535.956 0 435.518 0L0.709009 0.000269618Z" fill="#82B725"></path></svg> 